<?xml version="1.0" encoding="UTF-8" standalone="no"?>
<!-- Created with Inkscape (http://www.inkscape.org/) -->

<svg
   xmlns:dc="http://purl.org/dc/elements/1.1/"
   xmlns:cc="http://creativecommons.org/ns#"
   xmlns:rdf="http://www.w3.org/1999/02/22-rdf-syntax-ns#"
   xmlns:svg="http://www.w3.org/2000/svg"
   xmlns="http://www.w3.org/2000/svg"
   xmlns:sodipodi="http://sodipodi.sourceforge.net/DTD/sodipodi-0.dtd"
   xmlns:inkscape="http://www.inkscape.org/namespaces/inkscape"
   width="350"
   height="120"
   id="svg2985"
   version="1.1"
   inkscape:version="0.48.5 r10040"
   sodipodi:docname="hdva.svg">
  <defs
     id="defs2987" />
  <sodipodi:namedview
     id="base"
     pagecolor="#ffffff"
     bordercolor="#666666"
     borderopacity="1.0"
     inkscape:pageopacity="0.0"
     inkscape:pageshadow="2"
     inkscape:zoom="1.8668194"
     inkscape:cx="176.04688"
     inkscape:cy="59.488079"
     inkscape:document-units="px"
     inkscape:current-layer="layer1"
     showgrid="false"
     inkscape:window-width="1280"
     inkscape:window-height="737"
     inkscape:window-x="-8"
     inkscape:window-y="-8"
     inkscape:window-maximized="1" />
  <metadata
     id="metadata2990">
    <rdf:RDF>
      <cc:Work
         rdf:about="">
        <dc:format>image/svg+xml</dc:format>
        <dc:type
           rdf:resource="http://purl.org/dc/dcmitype/StillImage" />
        <dc:title></dc:title>
      </cc:Work>
    </rdf:RDF>
  </metadata>
  <g
     id="layer1"
     inkscape:label="Layer 1"
     inkscape:groupmode="layer"
     transform="translate(0,60)">
    <rect
       style="fill:#006400;fill-opacity:1;stroke:#000000;stroke-width:1;stroke-linecap:round;stroke-linejoin:round;stroke-miterlimit:4;stroke-opacity:1;stroke-dasharray:none"
       id="rect3051"
       width="69.493904"
       height="72.464462"
       x="21.627411"
       y="-36.292892"
       ry="9"
       rx="8" />
    <path
       style="fill:#005a00;stroke:#000000;stroke-width:1px;stroke-linecap:round;stroke-linejoin:round;stroke-opacity:1;fill-opacity:1"
       d="m 99.70833,-37.875 c -4.62432,0.561412 -5.04392,14.72362 -0.36004,14.8914 10.78637,0.173107 25.28655,0.384723 36.07358,0.430893 8.9087,1.192519 12.58552,0.970427 12.58552,20.6196571 0,23.2775639 -5.77376,26.0642549 -12.99224,25.9867729 -11.71424,0.402874 -23.61872,0.06054 -34.98482,-0.180251 -4.28366,-0.542282 -5.05355,13.06245 -0.46571,13.227141 14.17969,0.177375 28.99615,-0.222176 42.04394,-0.222176 11.12679,0 21.08436,-7.184579 21.08436,-37.82964468 C 162.42353,-30.922166 154.19468,-37.946285 141.7961,-37.946285 c -9.43429,-0.14931 -32.65741,0.389364 -42.08777,0.07129 z"
       id="path2995"
       inkscape:connector-curvature="0"
       sodipodi:nodetypes="ccccccccccc" />
    <rect
       style="fill:#2d3c16;fill-opacity:0.77248675;stroke:#000000;stroke-width:1.08878505000000000;stroke-linecap:round;stroke-linejoin:round;stroke-miterlimit:4;stroke-opacity:1;stroke-dasharray:none"
       id="rect3858"
       width="8.5951443"
       height="50.823971"
       x="34.592659"
       y="-24.223169"
       rx="12.668622"
       ry="7.2267981" />
    <rect
       style="fill:#2d3c16;fill-opacity:0.77248675;stroke:#000000;stroke-width:0.97990650000000001;stroke-linecap:round;stroke-linejoin:round;stroke-miterlimit:4;stroke-opacity:1;stroke-dasharray:none"
       id="rect3858-4"
       width="8.5951443"
       height="50.823971"
       x="52.167885"
       y="-24.277609"
       rx="12.668622"
       ry="7.2267981" />
    <rect
       style="fill:#2d3c16;fill-opacity:0.77248675;stroke:#000000;stroke-width:0.97990650000000001;stroke-linecap:round;stroke-linejoin:round;stroke-miterlimit:4;stroke-opacity:1;stroke-dasharray:none"
       id="rect3858-4-0"
       width="8.5951443"
       height="50.823971"
       x="69.743065"
       y="-24.277609"
       rx="12.668622"
       ry="7.2267981" />
    <path
       style="fill:#005000;stroke:#000000;stroke-width:1.10614455000000000px;stroke-linecap:round;stroke-linejoin:round;stroke-opacity:1;fill-opacity:1"
       d="m 244.46149,-35.831992 c 0,-4.652559 -14.8914,-4.978065 -14.8914,-0.02996 -0.14373,37.7939387 -11.66114,63.304325 -21.77512,63.201318 -9.38241,0.127638 -21.27966,-24.914545 -22.84831,-63.201318 0,-5.954481 -15.46079,-5.639033 -15.46079,0 1.40155,38.3895333 16.99177,76.881501 38.3091,77.095116 22.34375,0.223901 36.6665,-37.0811609 36.6665,-77.095116 z"
       id="path2995-9"
       inkscape:connector-curvature="0"
       sodipodi:nodetypes="cccccscc" />
    <path
       style="fill:#004600;stroke:#000000;stroke-width:1.10614455000000000px;stroke-linecap:round;stroke-linejoin:round;stroke-opacity:1;fill-opacity:1"
       d="m 255.43766,36.855835 c 0,4.652559 14.8914,4.978065 14.8914,0.02996 0.14373,-37.79393946 11.66114,-63.304325 21.77512,-63.201318 9.38241,-0.127638 21.27966,24.9145446 22.84831,63.201318 0,5.954481 15.46079,5.639033 15.46079,0 -1.40155,-38.3895344 -16.99177,-76.881501 -38.3091,-77.095116 -22.34375,-0.223901 -36.6665,37.0811606 -36.6665,77.095116 z"
       id="path2995-9-2"
       inkscape:connector-curvature="0"
       sodipodi:nodetypes="cccccscc" />
  </g>
</svg>
