<?xml version="1.0" encoding="UTF-8"?>
<svg version="1.1" viewBox="0 0 160 20" height="20" width="160" xmlns="http://www.w3.org/2000/svg" xmlns:cc="http://creativecommons.org/ns#" xmlns:dc="http://purl.org/dc/elements/1.1/" xmlns:rdf="http://www.w3.org/1999/02/22-rdf-syntax-ns#" xmlns:xlink="http://www.w3.org/1999/xlink">
<metadata>
<rdf:RDF>
<cc:Work rdf:about="">
<dc:format>image/svg+xml</dc:format>
<dc:type rdf:resource="http://purl.org/dc/dcmitype/StillImage"/>
<dc:title/>
</cc:Work>
</rdf:RDF>
</metadata>
<a transform="translate(4)" target="_parent" xlink:href="//www.cem.me/all.html">
<text x="32.50444" y="15.470693" fill="#000000" font-family="sans-serif" letter-spacing="0px" stroke-width="1px" word-spacing="0px" style="line-height:0%" xml:space="preserve"><tspan x="32.50444" y="15.470693" font-family="sans-serif" font-size="15px" style="line-height:1.25">Index</tspan></text>
</a>
<a transform="translate(-2)" target="_parent" xlink:href="//www.cem.me/about.html">
<text x="96.50444" y="15.470693" fill="#000000" font-family="sans-serif" letter-spacing="0px" stroke-width="1px" word-spacing="0px" style="line-height:0%" xml:space="preserve"><tspan x="96.50444" y="15.470693" font-family="sans-serif" font-size="15px" style="line-height:1.25">About</tspan></text>
</a>
<path d="m21.659 1.7734c0.75879 0.40927 0.84758 3.5142 0.46422 3.5142h-1.6341c-0.34323 0-0.10633-2.4267-0.93259-2.4267-0.96376 0-4.969-0.39088-5.3821 0.13803-0.54908 1.2176-0.6885 12.773-0.03722 13.607 0.33304 0.42638 4.1128 0.31735 5.4194 0.31866 1.0118 0 0.48746-2.3855 0.93259-2.4228h1.6341c0.29025 0 0.52313 3.3041-0.46422 3.5688-1.3307 0.26052-8.5136 0.7265-9.6488-0.45904-1.0269-1.0766-1.0235-14.477 0.14887-15.615 1.0063-1.0679 6.8211-0.94121 9.4998-0.2233z" fill="#004c00" stroke-width=".55564"/>
<path d="m17.068 9.6972c0.15699 0.3251-1.4867 2.8756-0.63211 2.9566 1.3401 0.12704 0.93036-2.8933 3.8742-3.6499 1.2928 0.11767-1.245 2.594-0.38742 3.0178 0.74037 0.36591 1.9371-3.2625 4.0373-3.6091 0.50951 0.94028-1.3215 2.4059-0.52016 2.9448 0.66757 0.44893 2.2964-3.1263 0.98914-3.9031-0.55839-0.33181-1.623 0.29978-3.079 1.5905-0.34339-1.3614-1.7927-1.2951-3.3237 0.18352-0.38476-1.4147-1.4758-0.60248-0.95836 0.46899z" fill="#004c00" stroke-width=".55564"/>
<a target="_parent" xlink:href="//www.cem.me/">
<rect x="1.6104" y=".56075" width="31.632" height="18.634" fill="#008000" fill-opacity=".0039216"/>
</a>
</svg>
