<?xml version="1.0" encoding="UTF-8" standalone="no"?>
<svg
   xmlns:dc="http://purl.org/dc/elements/1.1/"
   xmlns:cc="http://creativecommons.org/ns#"
   xmlns:rdf="http://www.w3.org/1999/02/22-rdf-syntax-ns#"
   xmlns:svg="http://www.w3.org/2000/svg"
   xmlns="http://www.w3.org/2000/svg"
   xmlns:xlink="http://www.w3.org/1999/xlink"
   xmlns:sodipodi="http://sodipodi.sourceforge.net/DTD/sodipodi-0.dtd"
   xmlns:inkscape="http://www.inkscape.org/namespaces/inkscape"
   version="1.1"
   id="navRight"
   viewBox="0 0 62 20"
   height="20"
   width="62"
   inkscape:version="0.92.5 (2060ec1f9f, 2020-04-08)"
   sodipodi:docname="navR.svg">
  <sodipodi:namedview
     pagecolor="#ffffff"
     bordercolor="#666666"
     borderopacity="1"
     objecttolerance="10"
     gridtolerance="10"
     guidetolerance="10"
     inkscape:pageopacity="0"
     inkscape:pageshadow="2"
     inkscape:window-width="1848"
     inkscape:window-height="1016"
     id="namedview11"
     showgrid="false"
     inkscape:zoom="18.483871"
     inkscape:cx="30.945899"
     inkscape:cy="10"
     inkscape:window-x="72"
     inkscape:window-y="27"
     inkscape:window-maximized="1"
     inkscape:current-layer="navRight" />
  <defs
     id="defs4">
    <filter
       style="color-interpolation-filters:sRGB"
       id="_drop-shadow">
      <feGaussianBlur
         id="feGaussianBlur7"
         stdDeviation="1"
         result="blur-out"
         in="SourceAlpha" />
      <feBlend
         id="feBlend9"
         mode="normal"
         in2="blur-out"
         in="SourceGraphic" />
    </filter>
    <linearGradient
       gradientUnits="userSpaceOnUse"
       gradientTransform="matrix(0.99994167,0,0,1.0000583,0,0.74448553)"
       y2="63.996323"
       x2="0.0004394635"
       y1="-0.00059563987"
       x1="0.0004394635"
       id="coin-gradient">
      <stop
         id="stop12"
         style="stop-color:#f9aa4b"
         offset="0%" />
      <stop
         id="stop14"
         style="stop-color:#f7931a"
         offset="100%" />
    </linearGradient>
  </defs>
  <metadata
     id="metadata7">
    <rdf:RDF>
      <cc:Work
         rdf:about="">
        <dc:format>image/svg+xml</dc:format>
        <dc:type
           rdf:resource="http://purl.org/dc/dcmitype/StillImage" />
        <dc:title />
      </cc:Work>
    </rdf:RDF>
  </metadata>
  <a
     id="a4148"
     xlink:href="https://www.coinbase.com/cem"
     target="_blank">
    <g
       transform="matrix(0.30645651,0,0,0.30645651,0.1856155,0.01005666)"
       id="g16">
      <path
         id="coin"
         d="m 63.0359,40.485486 c -4.274,17.143 -21.637,27.576 -38.782,23.301 -17.138,-4.274 -27.571,-21.638 -23.295,-38.78 4.272,-17.1450005 21.635,-27.5790005 38.775,-23.3050005 17.144,4.274 27.576,21.6400005 23.302,38.7840005 z"
         style="fill:url(#coin-gradient)"
         inkscape:connector-curvature="0" />
      <path
         id="symbol"
         d="m 52.463612,25.781897 c 0.903176,-6.037237 -3.693518,-9.282712 -9.97888,-11.44778 L 44.523611,6.1559152 39.545514,4.9152899 37.560513,12.877977 C 36.251831,12.55187 34.907702,12.244195 33.57208,11.939355 L 35.571259,3.9242076 30.595998,2.6835824 28.555701,10.858948 c -1.083243,-0.246707 -2.146636,-0.490579 -3.178836,-0.747211 l 0.0057,-0.02552 L 18.5173,8.3720273 17.193021,13.688992 c 0,0 3.693518,0.846461 3.615536,0.898922 2.016193,0.503339 2.380583,1.837543 2.319615,2.895265 l -2.322451,9.316741 c 0.138951,0.03545 0.319018,0.08649 0.517518,0.165889 -0.165889,-0.04112 -0.343121,-0.08649 -0.526025,-0.130443 l -3.2554,13.051378 c -0.246707,0.612514 -0.871983,1.531286 -2.281333,1.182493 0.04962,0.07231 -3.618372,-0.903176 -3.618372,-0.903176 l -2.4713253,5.698369 6.4781903,1.61494 c 1.205179,0.302004 2.386254,0.618186 3.548897,0.915936 l -2.060147,8.27178 4.972426,1.240625 2.040297,-8.183873 c 1.358307,0.368643 2.676915,0.708929 3.967165,1.029365 l -2.033207,8.14559 4.978097,1.240626 2.060147,-8.256184 c 8.488712,1.606432 14.871906,0.958472 17.558746,-6.719226 2.165068,-6.181858 -0.107758,-9.74777 -4.574008,-12.073056 3.252565,-0.750046 5.702622,-2.889593 6.356254,-7.309055 z M 41.08956,41.731375 c -1.538375,6.181858 -11.946866,2.839968 -15.321367,2.002015 l 2.733629,-10.95862 c 3.374501,0.842207 14.195589,2.509607 12.587738,8.956605 z m 1.539794,-16.038803 c -1.403679,5.623223 -10.066788,2.76624 -12.876981,2.065818 l 2.478414,-9.93918 c 2.810194,0.700422 11.860377,2.007686 10.398567,7.873362 z"
         style="fill:#ffffff"
         inkscape:connector-curvature="0" />
    </g>
  </a>
  <a
     id="a6714"
     rel="me"
     xlink:href="https://infosec.exchange/@cem"
     target="_blank"
     transform="translate(19.1004)">
    <g
       id="g6712">
      <path
         inkscape:connector-curvature="0"
         style="fill:#3088d4;stroke-width:0.08452775"
         d="m 41.710197,11.996517 c -0.268904,1.383401 -2.408408,2.897399 -4.865629,3.190816 -1.281335,0.152889 -2.54291,0.293417 -3.88817,0.231712 -2.200047,-0.100804 -3.936035,-0.525129 -3.936035,-0.525129 0,0.214172 0.01322,0.418096 0.03962,0.608811 0.28602,2.171202 2.15292,2.301269 3.921347,2.361917 1.784909,0.06107 3.374242,-0.440073 3.374242,-0.440073 l 0.07333,1.613635 c 0,0 -1.248475,0.670411 -3.472506,0.793716 -1.226393,0.06741 -2.749159,-0.03085 -4.522763,-0.500299 -3.846646,-1.018137 -4.508181,-5.118471 -4.609404,-9.278927 -0.03085,-1.2352681 -0.01183,-2.4000604 -0.01183,-3.3742427 0,-4.2542817 2.787409,-5.5012773 2.787409,-5.5012773 1.405485,-0.64547478 3.817168,-0.91691503 6.324366,-0.93741241 h 0.06159 c 2.5072,0.0204978 4.920466,0.29193763 6.325846,0.93741241 0,0 2.787303,1.2469956 2.787303,5.5012773 0,0 0.03497,3.1388314 -0.388722,5.3180637"
         id="path2" />
      <path
         inkscape:connector-curvature="0"
         style="fill:#ffffff;stroke-width:0.08452775"
         d="m 38.811106,7.008492 v 5.151226 H 36.77029 V 7.1599022 c 0,-1.0539553 -0.443454,-1.5889104 -1.330467,-1.5889104 -0.980733,0 -1.472261,0.6345921 -1.472261,1.8894066 V 10.19709 H 31.93879 V 7.4603984 c 0,-1.2548145 -0.491635,-1.8894066 -1.472369,-1.8894066 -0.887013,0 -1.330466,0.5349551 -1.330466,1.5889104 V 12.159718 H 27.095138 V 7.008492 c 0,-1.0527932 0.268058,-1.8894066 0.8065,-2.5083611 0.555242,-0.6189545 1.282392,-0.9362505 2.185043,-0.9362505 1.04434,0 1.835202,0.4014012 2.358112,1.2043092 l 0.50833,0.8521453 0.508434,-0.8521453 c 0.522804,-0.802908 1.313667,-1.2043092 2.358114,-1.2043092 0.902543,0 1.629693,0.317296 2.18504,0.9362505 0.538337,0.6189545 0.806395,1.4555679 0.806395,2.5083611"
         id="path4" />
    </g>
  </a>
  <a
     id="a829"
     target="_blank"
     xlink:href="https://www.cem.me/about.html">
    <g
       transform="translate(9.400152)"
       id="g6732">
      <path
         inkscape:connector-curvature="0"
         style="fill:#231f20;stroke-width:0.04393147"
         d="m 22,0.09784806 c -5.460681,0 -9.902152,4.44147094 -9.902152,9.90215194 0,5.460681 4.441471,9.902152 9.902152,9.902152 5.460681,0 9.902152,-4.441471 9.902152,-9.902152 C 31.902152,4.539319 27.460681,0.09784806 22,0.09784806 Z M 22,18.267902 c -4.560086,0 -8.267902,-3.707816 -8.267902,-8.267902 0,-4.5600859 3.707816,-8.2679015 8.267902,-8.2679015 4.560086,0 8.267902,3.7078156 8.267902,8.2679015 0,4.560086 -3.707816,8.267902 -8.267902,8.267902 z"
         id="path4571" />
      <circle
         style="fill:#f4b728;stroke-width:0.04393147"
         cx="22"
         cy="10"
         r="7.802228"
         id="circle4573" />
      <path
         inkscape:connector-curvature="0"
         style="fill:#231f20;stroke-width:0.04393147"
         d="m 18.46791,13.079595 v 1.511243 h 2.701785 v 1.656216 h 1.66061 V 14.590838 H 25.53209 V 12.591956 H 21.341028 L 25.53209,6.9072249 V 5.3959826 h -2.701785 v -1.651823 h -1.66061 v 1.651823 H 18.46791 v 2.0032748 h 4.191062 z"
         id="path4575" />
    </g>
  </a>
</svg>
