<?xml version="1.0" encoding="UTF-8" standalone="no"?>
<svg
   xmlns:dc="http://purl.org/dc/elements/1.1/"
   xmlns:cc="http://creativecommons.org/ns#"
   xmlns:rdf="http://www.w3.org/1999/02/22-rdf-syntax-ns#"
   xmlns:svg="http://www.w3.org/2000/svg"
   xmlns="http://www.w3.org/2000/svg"
   xmlns:xlink="http://www.w3.org/1999/xlink"
   xmlns:sodipodi="http://sodipodi.sourceforge.net/DTD/sodipodi-0.dtd"
   xmlns:inkscape="http://www.inkscape.org/namespaces/inkscape"
   version="1.1"
   id="navRight"
   viewBox="0 0 44 20"
   height="20"
   width="44"
   inkscape:version="0.91 r"
   sodipodi:docname="navR.svg">
  <sodipodi:namedview
     pagecolor="#ffffff"
     bordercolor="#666666"
     borderopacity="1"
     objecttolerance="10"
     gridtolerance="10"
     guidetolerance="10"
     inkscape:pageopacity="0"
     inkscape:pageshadow="2"
     inkscape:window-width="1855"
     inkscape:window-height="1056"
     id="namedview11"
     showgrid="false"
     inkscape:zoom="22.354217"
     inkscape:cx="22"
     inkscape:cy="10"
     inkscape:window-x="65"
     inkscape:window-y="24"
     inkscape:window-maximized="1"
     inkscape:current-layer="svg2" />
  <defs
     id="defs4">
    <filter
       style="color-interpolation-filters:sRGB"
       id="_drop-shadow">
      <feGaussianBlur
         id="feGaussianBlur7"
         stdDeviation="1"
         result="blur-out"
         in="SourceAlpha" />
      <feBlend
         id="feBlend9"
         mode="normal"
         in2="blur-out"
         in="SourceGraphic" />
    </filter>
    <linearGradient
       gradientUnits="userSpaceOnUse"
       gradientTransform="matrix(0.99994167,0,0,1.0000583,0,0.74448553)"
       y2="63.996323"
       x2="0.0004394635"
       y1="-0.00059563987"
       x1="0.0004394635"
       id="coin-gradient">
      <stop
         id="stop12"
         style="stop-color:#f9aa4b"
         offset="0%" />
      <stop
         id="stop14"
         style="stop-color:#f7931a"
         offset="100%" />
    </linearGradient>
  </defs>
  <metadata
     id="metadata7">
    <rdf:RDF>
      <cc:Work
         rdf:about="">
        <dc:format>image/svg+xml</dc:format>
        <dc:type
           rdf:resource="http://purl.org/dc/dcmitype/StillImage" />
        <dc:title />
      </cc:Work>
    </rdf:RDF>
  </metadata>
  <a
     id="a4148"
     xlink:href="https://www.coinbase.com/cem" target="_blank">
    <g
       transform="matrix(0.30645651,0,0,0.30645651,0.1856155,0.01005666)"
       id="g16">
      <path
         id="coin"
         d="m 63.0359,40.485486 c -4.274,17.143 -21.637,27.576 -38.782,23.301 -17.138,-4.274 -27.571,-21.638 -23.295,-38.78 4.272,-17.1450005 21.635,-27.5790005 38.775,-23.3050005 17.144,4.274 27.576,21.6400005 23.302,38.7840005 z"
         style="fill:url(#coin-gradient)"
         inkscape:connector-curvature="0" />
      <path
         id="symbol"
         d="m 52.463612,25.781897 c 0.903176,-6.037237 -3.693518,-9.282712 -9.97888,-11.44778 L 44.523611,6.1559152 39.545514,4.9152899 37.560513,12.877977 C 36.251831,12.55187 34.907702,12.244195 33.57208,11.939355 L 35.571259,3.9242076 30.595998,2.6835824 28.555701,10.858948 c -1.083243,-0.246707 -2.146636,-0.490579 -3.178836,-0.747211 l 0.0057,-0.02552 -6.865265,-1.7141897 -1.324279,5.3169647 c 0,0 3.693518,0.846461 3.615536,0.898922 2.016193,0.503339 2.380583,1.837543 2.319615,2.895265 l -2.322451,9.316741 c 0.138951,0.03545 0.319018,0.08649 0.517518,0.165889 -0.165889,-0.04112 -0.343121,-0.08649 -0.526025,-0.130443 l -3.2554,13.051378 c -0.246707,0.612514 -0.871983,1.531286 -2.281333,1.182493 0.04962,0.07231 -3.618372,-0.903176 -3.618372,-0.903176 l -2.4713253,5.698369 6.4781903,1.61494 c 1.205179,0.302004 2.386254,0.618186 3.548897,0.915936 l -2.060147,8.27178 4.972426,1.240625 2.040297,-8.183873 c 1.358307,0.368643 2.676915,0.708929 3.967165,1.029365 l -2.033207,8.14559 4.978097,1.240626 2.060147,-8.256184 c 8.488712,1.606432 14.871906,0.958472 17.558746,-6.719226 2.165068,-6.181858 -0.107758,-9.74777 -4.574008,-12.073056 3.252565,-0.750046 5.702622,-2.889593 6.356254,-7.309055 z M 41.08956,41.731375 c -1.538375,6.181858 -11.946866,2.839968 -15.321367,2.002015 l 2.733629,-10.95862 c 3.374501,0.842207 14.195589,2.509607 12.587738,8.956605 z m 1.539794,-16.038803 c -1.403679,5.623223 -10.066788,2.76624 -12.876981,2.065818 l 2.478414,-9.93918 c 2.810194,0.700422 11.860377,2.007686 10.398567,7.873362 z"
         style="fill:#ffffff"
         inkscape:connector-curvature="0" />
    </g>
  </a>
  <a
     id="a4153"
     xlink:href="https://plus.google.com/u/0/115606090533118002214?prsrc=3&amp;rel=me" target="_blank">
    <g
       transform="matrix(0.03320171,0,0,0.03320171,18.85771,0.1910989)"
       id="g4224">
      <g
         id="Layer_2">
        <circle
           style="fill:#f63e28"
           cx="420.944"
           cy="296.78101"
           r="294.5"
           id="circle4209" />
      </g>
      <g
         id="Icon">
        <g
           id="g4212">
          <path
             style="fill:#ffffff"
             inkscape:connector-curvature="0"
             d="m 465.39523,337.53622 c -9.87685,-4.24521 -19.68065,-6.58981 -29.45007,-7.01519 -6.80322,-0.21341 -18.31284,-0.85363 -34.54747,-1.90061 -16.25325,-1.0656 -29.02468,-1.70438 -38.3673,-1.9006 -8.70382,-0.21198 -17.14125,-0.5328 -25.31084,-0.9768 -8.17103,-0.40819 -15.34807,-1.47379 -21.49388,-3.17961 -6.37641,-1.49241 -11.7932,-4.29964 -16.25182,-8.45461 -4.45862,-4.12204 -6.67861,-10.12463 -6.67861,-17.99345 0,-7.63679 2.64681,-13.69524 7.95762,-18.13523 5.3108,-4.44 10.39102,-7.53081 15.27502,-9.23663 l 38.52627,0 c 29.71647,0 55.77352,-9.55602 78.17259,-28.65087 22.39763,-19.11203 33.58785,-42.45209 33.58785,-70.05455 0,-10.603 -1.9006,-21.43945 -5.719,-32.48788 -3.81839,-11.02981 -9.66344,-21.11863 -17.51507,-30.24927 l 0,-1.89917 73.87438,0 0,-30.570091 -109.54044,0 c -9.76799,-2.966204 -19.37844,-5.416796 -28.82847,-7.317401 -9.45003,-1.900605 -18.95162,-2.877404 -28.49045,-2.877404 -34.6019,0 -63.00355,9.556018 -85.17202,28.668054 -22.18423,19.113472 -33.28565,43.519122 -33.28565,73.235592 0,19.75082 5.61301,37.10405 16.87341,52.06111 11.24465,14.97424 27.05247,27.23007 47.44352,36.78752 l 0,4.77801 c -16.12865,6.7846 -28.17107,14.91982 -36.14587,24.35266 -7.95762,9.45003 -11.93643,19.78663 -11.93643,31.04847 0,8.91723 1.70438,16.39504 5.09883,22.45205 3.39159,6.05702 7.8502,11.3134 13.37442,15.77345 4.88543,3.8184 10.71185,7.15842 17.51507,10.01721 6.7846,2.86021 13.37584,5.25781 19.73363,7.15842 l 0,4.45861 c -26.32345,1.08279 -47.97631,7.8502 -64.95714,20.37386 -16.98084,12.52222 -25.47126,29.61048 -25.47126,51.28052 0,26.75026 11.7932,47.05251 35.34667,60.97691 23.55346,13.92726 59.11354,20.87085 106.66447,20.87085 29.07624,0 53.50052,-2.77142 73.25134,-8.2942 19.75226,-5.52422 36.71591,-13.26986 50.94252,-23.25126 13.37585,-9.76799 23.34006,-21.27904 29.94706,-34.54747 6.57262,-13.26843 9.87684,-27.42486 9.87684,-42.50509 0,-15.08023 -2.45202,-27.70987 -7.3174,-37.90611 -4.884,-10.17619 -11.58123,-19.30682 -20.07165,-27.38905 -8.06504,-7.41193 -17.03526,-13.25554 -26.91067,-17.50075 z M 391.52228,224.65719 c -9.87684,14.76084 -23.94447,22.13123 -42.1857,22.13123 -16.34061,0 -29.66347,-7.42482 -39.96426,-22.29164 -10.30222,-14.84821 -15.43543,-34.06767 -15.43543,-57.63832 0,-10.39102 0.90518,-20.53283 2.6998,-30.40824 1.79462,-9.87542 4.81382,-18.31284 9.07621,-25.31228 4.45862,-7.63679 10.24923,-13.533396 17.35466,-17.672619 7.104,-4.139222 15.64884,-6.217427 25.63167,-6.217427 18.24122,0 32.41627,7.389013 42.50509,22.131236 10.07163,14.76084 15.13323,34.54747 15.13323,59.37994 -0.003,22.50362 -4.93986,41.13728 -14.81527,55.89812 z m 49.04048,262.06578 c -17.93902,12.00661 -42.52228,17.99201 -73.71397,17.99201 -18.04644,0 -33.32146,-1.75881 -45.8623,-5.2392 -12.52222,-3.499 -22.50505,-8.01204 -29.92844,-13.55344 -7.85163,-5.71901 -13.37585,-11.98943 -16.55546,-18.79265 -3.17961,-6.7846 -4.77801,-13.89003 -4.77801,-21.33346 0,-16.55403 4.83101,-30.07024 14.49301,-40.58587 9.64482,-10.51563 25.95107,-18.01206 48.88293,-22.46925 24.40566,0 45.8623,0.5328 64.31693,1.5984 18.47182,1.08279 30.67465,2.02521 36.62567,2.85879 11.24322,2.75423 19.62765,7.95905 25.16905,15.61303 5.52279,7.65541 8.27702,17.39046 8.27702,29.28966 -0.0344,24.40709 -8.98598,42.63255 -26.92643,54.62198 z"
             id="path4214" />
          <path
             style="fill:#ffffff"
             inkscape:connector-curvature="0"
             d="m 591.13763,227.1126 0,88.643 34.59826,0 0,-88.643 88.23719,0 0,-34.01503 -88.23719,0 0,-88.84489 -34.59826,0 0,88.84489 -88.23923,0 0,34.01503 88.23923,0 z"
             id="path4216" />
        </g>
      </g>
    </g>
  </a>
</svg>

