<?xml version="1.0" encoding="UTF-8" standalone="no"?>
<!-- Created with Inkscape (http://www.inkscape.org/) -->

<svg
   xmlns:dc="http://purl.org/dc/elements/1.1/"
   xmlns:cc="http://creativecommons.org/ns#"
   xmlns:rdf="http://www.w3.org/1999/02/22-rdf-syntax-ns#"
   xmlns:svg="http://www.w3.org/2000/svg"
   xmlns="http://www.w3.org/2000/svg"
   xmlns:sodipodi="http://sodipodi.sourceforge.net/DTD/sodipodi-0.dtd"
   xmlns:inkscape="http://www.inkscape.org/namespaces/inkscape"
   width="148mm"
   height="105mm"
   viewBox="0 0 148 105"
   version="1.1"
   id="svg8"
   inkscape:version="0.92.5 (2060ec1f9f, 2020-04-08)"
   sodipodi:docname="xor.svg">
  <defs
     id="defs2" />
  <sodipodi:namedview
     id="base"
     pagecolor="#ffffff"
     bordercolor="#666666"
     borderopacity="1.0"
     inkscape:pageopacity="0.0"
     inkscape:pageshadow="2"
     inkscape:zoom="1.443869"
     inkscape:cx="313.74037"
     inkscape:cy="196.575"
     inkscape:document-units="mm"
     inkscape:current-layer="layer1"
     showgrid="false"
     inkscape:window-width="1848"
     inkscape:window-height="1016"
     inkscape:window-x="72"
     inkscape:window-y="27"
     inkscape:window-maximized="1"
     units="mm" />
  <metadata
     id="metadata5">
    <rdf:RDF>
      <cc:Work
         rdf:about="">
        <dc:format>image/svg+xml</dc:format>
        <dc:type
           rdf:resource="http://purl.org/dc/dcmitype/StillImage" />
        <dc:title></dc:title>
      </cc:Work>
    </rdf:RDF>
  </metadata>
  <g
     inkscape:label="Layer 1"
     inkscape:groupmode="layer"
     id="layer1"
     transform="translate(0,-191.99999)"
     style="opacity:0.76000001">
    <path
       style="color:#000000;clip-rule:nonzero;display:inline;overflow:visible;visibility:visible;opacity:1;isolation:auto;mix-blend-mode:normal;color-interpolation:sRGB;color-interpolation-filters:linearRGB;solid-color:#000000;solid-opacity:1;fill:#d7beff;fill-opacity:1;fill-rule:nonzero;stroke:none;stroke-width:0.71541053;stroke-linecap:round;stroke-linejoin:round;stroke-miterlimit:4;stroke-dasharray:none;stroke-dashoffset:0;stroke-opacity:1;paint-order:normal;color-rendering:auto;image-rendering:auto;shape-rendering:auto;text-rendering:auto;enable-background:accumulate"
       d="m 11.801993,261.4924 h 74.475341 v 27.34207 H 11.801993 Z"
       id="rect905"
       inkscape:connector-curvature="0" />
    <path
       style="color:#000000;clip-rule:nonzero;display:inline;overflow:visible;visibility:visible;opacity:1;isolation:auto;mix-blend-mode:normal;color-interpolation:sRGB;color-interpolation-filters:linearRGB;solid-color:#000000;solid-opacity:1;fill:#d7beff;fill-opacity:1;fill-rule:nonzero;stroke:none;stroke-width:0.71541053;stroke-linecap:round;stroke-linejoin:round;stroke-miterlimit:4;stroke-dasharray:none;stroke-dashoffset:0;stroke-opacity:1;paint-order:normal;color-rendering:auto;image-rendering:auto;shape-rendering:auto;text-rendering:auto;enable-background:accumulate"
       d="M 11.947183,223.17178 H 86.42252 v 10.12563 H 11.947183 Z"
       id="rect907"
       inkscape:connector-curvature="0" />
    <g
       id="g863"
       transform="matrix(0.71541055,0,0,0.71541055,13.129112,115.88646)">
      <path
         style="color:#000000;clip-rule:nonzero;display:inline;overflow:visible;visibility:visible;opacity:1;isolation:auto;mix-blend-mode:normal;color-interpolation:sRGB;color-interpolation-filters:linearRGB;solid-color:#000000;solid-opacity:1;fill:none;fill-opacity:1;fill-rule:nonzero;stroke:#000000;stroke-width:1;stroke-linecap:round;stroke-linejoin:round;stroke-miterlimit:4;stroke-dasharray:none;stroke-dashoffset:0;stroke-opacity:1;paint-order:normal;color-rendering:auto;image-rendering:auto;shape-rendering:auto;text-rendering:auto;enable-background:accumulate"
         d="M -1.6520989,149.96327 H 102.2465 v 91.78322 H -1.6520989 Z"
         id="rect29"
         inkscape:connector-curvature="0" />
      <path
         inkscape:connector-curvature="0"
         id="path836"
         d="m 31.153002,150.14684 v 91.41609"
         style="fill:none;fill-rule:evenodd;stroke:#000000;stroke-width:1;stroke-linecap:butt;stroke-linejoin:miter;stroke-miterlimit:4;stroke-dasharray:none;stroke-opacity:1" />
      <path
         style="fill:none;fill-rule:evenodd;stroke:#000000;stroke-width:2;stroke-linecap:butt;stroke-linejoin:miter;stroke-miterlimit:4;stroke-dasharray:none;stroke-opacity:1"
         d="m 65.548833,150.14684 v 91.41609"
         id="path838"
         inkscape:connector-curvature="0" />
      <path
         sodipodi:nodetypes="cc"
         inkscape:connector-curvature="0"
         id="path848"
         d="M 102.26104,164.10487 H -1.8550447"
         style="fill:none;fill-rule:evenodd;stroke:#000000;stroke-width:1;stroke-linecap:butt;stroke-linejoin:miter;stroke-miterlimit:4;stroke-dasharray:none;stroke-opacity:1" />
      <path
         style="fill:none;fill-rule:evenodd;stroke:#000000;stroke-width:1;stroke-linecap:butt;stroke-linejoin:miter;stroke-miterlimit:4;stroke-dasharray:none;stroke-opacity:1"
         d="M 102.26104,183.15487 H -1.8550447"
         id="path850"
         inkscape:connector-curvature="0"
         sodipodi:nodetypes="cc" />
      <path
         sodipodi:nodetypes="cc"
         inkscape:connector-curvature="0"
         id="path852"
         d="M 183.62458,203.52781 H -1.8550447"
         style="fill:none;fill-rule:evenodd;stroke:#000000;stroke-width:1;stroke-linecap:butt;stroke-linejoin:miter;stroke-miterlimit:4;stroke-dasharray:none;stroke-opacity:1" />
      <path
         style="fill:none;fill-rule:evenodd;stroke:#000000;stroke-width:1;stroke-linecap:butt;stroke-linejoin:miter;stroke-miterlimit:4;stroke-dasharray:none;stroke-opacity:1"
         d="M 102.26104,223.90075 H -1.8550447"
         id="path854"
         inkscape:connector-curvature="0"
         sodipodi:nodetypes="cc" />
    </g>
    <g
       aria-label="XOR"
       style="font-style:normal;font-variant:normal;font-weight:normal;font-stretch:normal;font-size:22.94758415px;line-height:114.99999762%;font-family:BonvenoCF;-inkscape-font-specification:BonvenoCF;text-align:start;letter-spacing:0px;word-spacing:0px;writing-mode:lr-tb;text-anchor:start;fill:#000000;fill-opacity:1;stroke:none;stroke-width:1.43422401px;stroke-linecap:butt;stroke-linejoin:miter;stroke-opacity:1"
       id="text867"
       transform="matrix(0.71541055,0,0,0.71541055,-1.5793298,83.812487)">
      <path
         d="m 23.11636,173.48402 -7.02196,-8.37587 6.35648,-7.5727 -0.940851,-0.80317 -6.218795,7.41207 -6.2187951,-7.38912 -0.940851,0.78022 6.2876381,7.50386 -7.0908035,8.44471 0.9637985,0.78022 6.93017,-8.26113 6.953118,8.28408 z"
         style="stroke-width:1.43422401px"
         id="path847"
         inkscape:connector-curvature="0" />
      <path
         d="m 25.296374,165.5671 c 0,4.56657 3.625718,8.72009 8.857767,8.72009 4.566569,0 8.720082,-3.62572 8.720082,-8.85777 0,-4.56657 -3.625718,-8.72008 -8.857767,-8.72008 -4.56657,0 -8.720082,3.62572 -8.720082,8.85776 z m 16.33868,-0.0688 c 0,4.52068 -3.648666,7.54976 -7.503861,7.54976 -4.566569,0 -7.59565,-3.67162 -7.59565,-7.50386 0,-4.56657 3.648666,-7.59565 7.480913,-7.59565 4.382988,0 7.618598,3.41919 7.618598,7.54975 z"
         style="stroke-width:1.43422401px"
         id="path849"
         inkscape:connector-curvature="0" />
      <path
         d="m 57.331187,162.49213 c 0,-2.59308 -1.950544,-5.32384 -5.323839,-5.32384 h -5.117312 v 16.70584 h 1.23917 v -15.46667 h 3.878142 c 2.616024,0 4.08467,2.15707 4.08467,4.08467 0,2.68487 -2.088231,4.22235 -4.038775,4.22235 h -3.350347 l 7.572702,7.57271 0.872009,-0.87201 -5.828687,-5.85164 c 0.137686,0.0459 0.872008,0.18359 1.445698,0.18359 2.455391,0 4.566569,-2.36361 4.566569,-5.255 z"
         style="stroke-width:1.43422401px"
         id="path851"
         inkscape:connector-curvature="0" />
    </g>
    <g
       aria-label="One or the  other"
       style="font-style:normal;font-variant:normal;font-weight:normal;font-stretch:normal;font-size:12.60984993px;line-height:114.99999762%;font-family:BonvenoCF;-inkscape-font-specification:BonvenoCF;text-align:start;letter-spacing:0px;word-spacing:0px;writing-mode:lr-tb;text-anchor:start;fill:#000000;fill-opacity:1;stroke:none;stroke-width:0.78811562px;stroke-linecap:butt;stroke-linejoin:miter;stroke-opacity:1"
       id="text871"
       transform="matrix(0.71541055,0,0,0.71541055,-1.5793298,90.409346)">
      <path
         d="m 127.84315,210.41854 c 0,2.50936 1.99236,4.79174 4.86741,4.79174 2.50936,0 4.79174,-1.99235 4.79174,-4.8674 0,-2.50936 -1.99236,-4.79174 -4.8674,-4.79174 -2.50936,0 -4.79175,1.99236 -4.79175,4.8674 z m 8.97822,-0.0378 c 0,2.48414 -2.00497,4.14864 -4.12342,4.14864 -2.50936,0 -4.17386,-2.01757 -4.17386,-4.12342 0,-2.50936 2.00496,-4.17386 4.11081,-4.17386 2.40848,0 4.18647,1.87887 4.18647,4.14864 z"
         style="text-align:start;text-anchor:start;stroke-width:0.78811562px"
         id="path855"
         inkscape:connector-curvature="0" />
      <path
         d="m 143.25238,208.16138 c -1.27359,0 -2.73633,1.08445 -2.91287,1.89148 v -1.67711 h -0.63049 v 6.60756 h 0.63049 v -3.35422 c 0,-1.47536 1.1601,-2.83722 2.90026,-2.83722 1.08445,0 1.72755,0.84486 1.72755,1.67711 v 4.51433 h 0.6305 v -4.52694 c 0,-1.13489 -0.87008,-2.29499 -2.34544,-2.29499 z"
         style="text-align:start;text-anchor:start;stroke-width:0.78811562px"
         id="path857"
         inkscape:connector-curvature="0" />
      <path
         d="m 148.62416,211.67953 6.20405,-1.08445 c -0.42873,-1.37447 -1.67711,-2.4337 -3.36683,-2.4337 -1.7906,0 -3.46771,1.4123 -3.46771,3.53076 0,1.79059 1.41231,3.45509 3.53076,3.45509 0.61788,0 1.22316,-0.16392 1.75277,-0.47917 l -0.31525,-0.54222 c -0.42873,0.25219 -0.93313,0.3909 -1.43752,0.3909 -1.74016,0 -2.90027,-1.36186 -2.90027,-2.83721 z m 0.0757,-0.64311 c 0.29003,-1.37447 1.48797,-2.24455 2.76156,-2.24455 1.09706,0 1.96714,0.54222 2.45892,1.32403 z"
         style="text-align:start;text-anchor:start;stroke-width:0.78811562px"
         id="path859"
         inkscape:connector-curvature="0" />
      <path
         d="m 161.32227,211.69214 c 0,1.79059 1.41231,3.45509 3.53076,3.45509 1.7906,0 3.4551,-1.4123 3.4551,-3.53075 0,-1.7906 -1.4123,-3.4551 -3.53076,-3.4551 -1.7906,0 -3.4551,1.4123 -3.4551,3.53076 z m 6.35537,-0.0631 c 0,1.72755 -1.36187,2.88765 -2.83722,2.88765 -1.72755,0 -2.88766,-1.36186 -2.88766,-2.83721 0,-1.72755 1.36187,-2.88766 2.83722,-2.88766 1.72755,0 2.88766,1.36186 2.88766,2.83722 z"
         style="text-align:start;text-anchor:start;stroke-width:0.78811562px"
         id="path861"
         inkscape:connector-curvature="0" />
      <path
         d="m 171.33447,210.05286 v -1.67711 h -0.63049 v 6.60756 h 0.63049 v -3.35422 c 0,-1.47536 1.17272,-2.83722 2.91288,-2.83722 0,-0.34047 0,-0.37829 0,-0.63049 -1.2736,0 -2.73634,1.08445 -2.91288,1.89148 z"
         style="text-align:start;text-anchor:start;stroke-width:0.78811562px"
         id="path863"
         inkscape:connector-curvature="0" />
      <path
         d="m 183.67951,215.12202 c 0.40352,0 0.81964,-0.11349 1.17272,-0.32786 l -0.31525,-0.54222 c -0.26481,0.15131 -0.56744,0.23958 -0.87008,0.23958 -1.07184,0 -1.72755,-0.84486 -1.72755,-1.67711 v -3.80817 h 2.97593 v -0.63049 h -2.97593 v -1.86626 h -0.63049 v 1.86626 h -0.63049 v 0.63049 h 0.63049 v 3.82078 c 0,1.13489 0.8953,2.295 2.37065,2.295 z"
         style="text-align:start;text-anchor:start;stroke-width:0.78811562px"
         id="path865"
         inkscape:connector-curvature="0" />
      <path
         d="m 191.81286,214.98331 h 0.63049 v -4.52694 c 0,-1.13489 -0.87008,-2.29499 -2.35804,-2.29499 -1.07184,0 -1.80321,0.44134 -2.26977,1.09706 v -4.36301 h -0.63049 v 10.08788 h 0.63049 v -5.13221 c 0.517,-0.63049 1.29881,-1.05923 2.26977,-1.05923 1.07184,0 1.72755,0.84486 1.72755,1.67711 z"
         style="text-align:start;text-anchor:start;stroke-width:0.78811562px"
         id="path867"
         inkscape:connector-curvature="0" />
      <path
         d="m 195.46971,211.67953 6.20405,-1.08445 c -0.42874,-1.37447 -1.67711,-2.4337 -3.36683,-2.4337 -1.7906,0 -3.46771,1.4123 -3.46771,3.53076 0,1.79059 1.4123,3.45509 3.53076,3.45509 0.61788,0 1.22315,-0.16392 1.75276,-0.47917 l -0.31524,-0.54222 c -0.42874,0.25219 -0.93313,0.3909 -1.43752,0.3909 -1.74016,0 -2.90027,-1.36186 -2.90027,-2.83721 z m 0.0757,-0.64311 c 0.29003,-1.37447 1.48796,-2.24455 2.76156,-2.24455 1.09705,0 1.96713,0.54222 2.45892,1.32403 z"
         style="text-align:start;text-anchor:start;stroke-width:0.78811562px"
         id="path869"
         inkscape:connector-curvature="0" />
      <path
         d="m 128.0323,226.19346 c 0,1.7906 1.41231,3.4551 3.53076,3.4551 1.7906,0 3.4551,-1.4123 3.4551,-3.53076 0,-1.79059 -1.4123,-3.45509 -3.53076,-3.45509 -1.7906,0 -3.4551,1.4123 -3.4551,3.53075 z m 6.35537,-0.063 c 0,1.72755 -1.36187,2.88766 -2.83722,2.88766 -1.72755,0 -2.88766,-1.36186 -2.88766,-2.83722 0,-1.72755 1.36187,-2.88765 2.83722,-2.88765 1.72755,0 2.88766,1.36186 2.88766,2.83721 z"
         style="text-align:start;text-anchor:start;stroke-width:0.78811562px"
         id="path871"
         inkscape:connector-curvature="0" />
      <path
         d="m 139.78466,229.62334 c 0.40352,0 0.81964,-0.11349 1.17272,-0.32785 l -0.31525,-0.54223 c -0.26481,0.15132 -0.56744,0.23959 -0.87008,0.23959 -1.07184,0 -1.72755,-0.84486 -1.72755,-1.67711 v -3.80817 h 2.97593 v -0.6305 h -2.97593 v -1.86626 h -0.63049 v 1.86626 h -0.63049 v 0.6305 h 0.63049 v 3.82078 c 0,1.13489 0.8953,2.29499 2.37065,2.29499 z"
         style="text-align:start;text-anchor:start;stroke-width:0.78811562px"
         id="path873"
         inkscape:connector-curvature="0" />
      <path
         d="m 147.91801,229.48463 h 0.63049 v -4.52693 c 0,-1.13489 -0.87008,-2.29499 -2.35804,-2.29499 -1.07184,0 -1.80321,0.44134 -2.26977,1.09705 v -4.36301 h -0.6305 v 10.08788 h 0.6305 v -5.1322 c 0.517,-0.6305 1.29881,-1.05923 2.26977,-1.05923 1.07184,0 1.72755,0.84486 1.72755,1.67711 z"
         style="text-align:start;text-anchor:start;stroke-width:0.78811562px"
         id="path875"
         inkscape:connector-curvature="0" />
      <path
         d="m 151.57486,226.18085 6.20405,-1.08444 c -0.42874,-1.37448 -1.67711,-2.4337 -3.36683,-2.4337 -1.7906,0 -3.46771,1.4123 -3.46771,3.53075 0,1.7906 1.4123,3.4551 3.53076,3.4551 0.61788,0 1.22315,-0.16393 1.75276,-0.47917 l -0.31524,-0.54223 c -0.42874,0.2522 -0.93313,0.39091 -1.43752,0.39091 -1.74016,0 -2.90027,-1.36186 -2.90027,-2.83722 z m 0.0757,-0.6431 c 0.29003,-1.37447 1.48796,-2.24455 2.76156,-2.24455 1.09705,0 1.96713,0.54222 2.45892,1.32403 z"
         style="text-align:start;text-anchor:start;stroke-width:0.78811562px"
         id="path877"
         inkscape:connector-curvature="0" />
      <path
         d="m 160.49002,224.55418 v -1.67711 h -0.63049 v 6.60756 h 0.63049 v -3.35422 c 0,-1.47535 1.17271,-2.83721 2.91287,-2.83721 0,-0.34047 0,-0.3783 0,-0.63049 -1.27359,0 -2.73633,1.08444 -2.91287,1.89147 z"
         style="text-align:start;text-anchor:start;stroke-width:0.78811562px"
         id="path879"
         inkscape:connector-curvature="0" />
    </g>
    <g
       aria-label="Not Both"
       style="font-style:normal;font-variant:normal;font-weight:normal;font-stretch:normal;font-size:16.22703171px;line-height:114.99999762%;font-family:BonvenoCF;-inkscape-font-specification:BonvenoCF;text-align:start;letter-spacing:0px;word-spacing:0px;writing-mode:lr-tb;text-anchor:start;fill:#000000;fill-opacity:1;stroke:none;stroke-width:1.01418948px;stroke-linecap:butt;stroke-linejoin:miter;stroke-opacity:1"
       id="text887"
       transform="matrix(0.71541055,0,0,0.71541055,-1.5793298,90.409346)">
      <path
         d="m 128.40518,252.06473 v 12.20273 h 0.87626 v -9.80113 l 8.55165,10.19057 v -12.20272 h -0.87626 v 9.80112 z"
         style="stroke:#000000;stroke-width:1.01418948px"
         id="path882"
         inkscape:connector-curvature="0" />
      <path
         d="m 140.91621,260.0322 c 0,2.30424 1.81743,4.44621 4.54357,4.44621 2.30424,0 4.44621,-1.81743 4.44621,-4.54357 0,-2.30424 -1.81743,-4.44621 -4.54357,-4.44621 -2.30424,0 -4.44621,1.81743 -4.44621,4.54357 z m 8.17842,-0.0811 c 0,2.2231 -1.75251,3.71599 -3.65108,3.71599 -2.2231,0 -3.71599,-1.75252 -3.71599,-3.65109 0,-2.2231 1.75252,-3.71599 3.65108,-3.71599 2.22311,0 3.71599,1.75252 3.71599,3.65109 z"
         style="stroke:#000000;stroke-width:1.01418948px"
         id="path884"
         inkscape:connector-curvature="0" />
      <path
         d="m 156.03978,264.44595 c 0.51926,0 1.05475,-0.14604 1.50911,-0.4219 l -0.40568,-0.69776 c -0.34076,0.19472 -0.73021,0.30831 -1.11966,0.30831 -1.3793,0 -2.2231,-1.08721 -2.2231,-2.15819 v -4.90057 h 3.82958 v -0.81135 h -3.82958 v -2.4016 h -0.81136 v 2.4016 h -0.81135 v 0.81135 h 0.81135 v 4.91679 c 0,1.46044 1.15212,2.95332 3.05069,2.95332 z"
         style="stroke:#000000;stroke-width:1.01418948px"
         id="path886"
         inkscape:connector-curvature="0" />
      <path
         d="m 171.43922,257.74419 c 0.25963,-0.0487 0.86003,-0.4219 1.03853,-0.6004 0.19472,-0.21095 0.58417,-0.69776 0.58417,-1.73629 0,-1.44421 -1.13589,-2.95332 -3.06691,-2.95332 h -2.95332 v 11.81328 h 3.40768 c 1.63893,0 3.29409,-1.28194 3.29409,-3.40768 0,-2.04461 -1.8012,-3.06691 -2.30424,-3.11559 z m -1.00608,5.64701 h -2.51519 v -4.93302 h 2.72614 c 1.39553,0 2.22311,1.28193 2.22311,2.41783 0,1.57402 -1.23326,2.51519 -2.43406,2.51519 z m -2.51519,-5.80928 v -4.25148 h 2.07706 c 1.34685,0 2.19065,1.05475 2.19065,2.09328 0,1.2008 -0.8438,1.99593 -1.75252,2.1582 z"
         style="stroke:#000000;stroke-width:1.01418948px"
         id="path888"
         inkscape:connector-curvature="0" />
      <path
         d="m 176.42089,260.0322 c 0,2.30424 1.81743,4.44621 4.54357,4.44621 2.30424,0 4.4462,-1.81743 4.4462,-4.54357 0,-2.30424 -1.81742,-4.44621 -4.54357,-4.44621 -2.30423,0 -4.4462,1.81743 -4.4462,4.54357 z m 8.17842,-0.0811 c 0,2.2231 -1.75252,3.71599 -3.65108,3.71599 -2.2231,0 -3.71599,-1.75252 -3.71599,-3.65109 0,-2.2231 1.75252,-3.71599 3.65108,-3.71599 2.22311,0 3.71599,1.75252 3.71599,3.65109 z"
         style="stroke:#000000;stroke-width:1.01418948px"
         id="path890"
         inkscape:connector-curvature="0" />
      <path
         d="m 191.54446,264.44595 c 0.51926,0 1.05475,-0.14604 1.50911,-0.4219 l -0.40567,-0.69776 c -0.34077,0.19472 -0.73022,0.30831 -1.11967,0.30831 -1.3793,0 -2.2231,-1.08721 -2.2231,-2.15819 v -4.90057 h 3.82958 v -0.81135 h -3.82958 v -2.4016 h -0.81135 v 2.4016 h -0.81136 v 0.81135 h 0.81136 v 4.91679 c 0,1.46044 1.15211,2.95332 3.05068,2.95332 z"
         style="stroke:#000000;stroke-width:1.01418948px"
         id="path892"
         inkscape:connector-curvature="0" />
      <path
         d="m 202.01089,264.26746 h 0.81135 v -5.82551 c 0,-1.46043 -1.11967,-2.95332 -3.03446,-2.95332 -1.37929,0 -2.32046,0.56795 -2.92086,1.41175 v -5.61455 h -0.81135 v 12.98163 h 0.81135 v -6.60441 c 0.66531,-0.81135 1.67138,-1.36307 2.92086,-1.36307 1.3793,0 2.22311,1.08721 2.22311,2.1582 z"
         style="stroke:#000000;stroke-width:1.01418948px"
         id="path894"
         inkscape:connector-curvature="0" />
    </g>
    <g
       aria-label="A"
       style="font-style:normal;font-variant:normal;font-weight:normal;font-stretch:normal;font-size:13.34117222px;line-height:114.99999762%;font-family:BonvenoCF;-inkscape-font-specification:BonvenoCF;text-align:start;letter-spacing:0px;word-spacing:0px;writing-mode:lr-tb;text-anchor:start;fill:#000000;fill-opacity:1;stroke:none;stroke-width:0.83382326px;stroke-linecap:butt;stroke-linejoin:miter;stroke-opacity:1"
       id="text911"
       transform="matrix(0.71541055,0,0,0.71541055,-1.5793298,90.409346)">
      <path
         d="m 30.826917,197.25187 0.653718,0.30684 1.680987,-3.60211 h 4.54934 l 1.680988,3.60211 0.653717,-0.30684 -4.602704,-9.87247 z m 6.550516,-4.0157 h -3.882281 l 1.93447,-4.16244 z"
         style="stroke-width:0.83382326px"
         id="path897"
         inkscape:connector-curvature="0" />
    </g>
    <g
       aria-label="B"
       style="font-style:normal;font-variant:normal;font-weight:normal;font-stretch:normal;font-size:13.34117222px;line-height:114.99999762%;font-family:BonvenoCF;-inkscape-font-specification:BonvenoCF;text-align:start;letter-spacing:0px;word-spacing:0px;writing-mode:lr-tb;text-anchor:start;fill:#000000;fill-opacity:1;stroke:none;stroke-width:0.83382326px;stroke-linecap:butt;stroke-linejoin:miter;stroke-opacity:1"
       id="text915"
       transform="matrix(0.71541055,0,0,0.71541055,-1.5793298,90.409346)">
      <path
         d="m 69.772093,192.03547 c 0.213459,-0.04 0.707082,-0.34687 0.853835,-0.49362 0.160094,-0.17344 0.480282,-0.57367 0.480282,-1.42751 0,-1.18736 -0.933882,-2.42809 -2.521481,-2.42809 h -2.428094 v 9.71237 h 2.801646 c 1.347459,0 2.708258,-1.05395 2.708258,-2.80165 0,-1.68098 -1.48087,-2.52148 -1.894446,-2.5615 z m -0.827153,4.64273 h -2.067881 v -4.05572 h 2.241316 c 1.147341,0 1.827741,1.05395 1.827741,1.98784 0,1.29409 -1.013929,2.06788 -2.001176,2.06788 z m -2.067881,-4.77614 v -3.49539 h 1.70767 c 1.107317,0 1.801058,0.86718 1.801058,1.72101 0,0.98725 -0.693741,1.64097 -1.440847,1.77438 z"
         style="stroke-width:0.83382326px"
         id="path900"
         inkscape:connector-curvature="0" />
    </g>
    <g
       aria-label="Output"
       style="font-style:normal;font-variant:normal;font-weight:normal;font-stretch:normal;font-size:7.69540024px;line-height:114.99999762%;font-family:BonvenoCF;-inkscape-font-specification:BonvenoCF;text-align:start;letter-spacing:0px;word-spacing:0px;writing-mode:lr-tb;text-anchor:start;fill:#000000;fill-opacity:1;stroke:none;stroke-width:0.48096251px;stroke-linecap:butt;stroke-linejoin:miter;stroke-opacity:1"
       id="text919"
       transform="matrix(0.71541055,0,0,0.71541055,-1.5793298,90.409346)">
      <path
         d="m 90.099349,192.56065 c 0,1.53139 1.215873,2.92426 2.970424,2.92426 1.531385,0 2.924252,-1.21588 2.924252,-2.97043 0,-1.53138 -1.215873,-2.92425 -2.970424,-2.92425 -1.531385,0 -2.924252,1.21587 -2.924252,2.97042 z m 5.479125,-0.0231 c 0,1.51599 -1.223569,2.53179 -2.516396,2.53179 -1.531385,0 -2.547178,-1.23127 -2.547178,-2.5164 0,-1.53139 1.223569,-2.54718 2.508701,-2.54718 1.469821,0 2.554873,1.14662 2.554873,2.53179 z"
         style="stroke-width:0.48096251px"
         id="path903"
         inkscape:connector-curvature="0" />
      <path
         d="m 98.772061,195.44643 c 0.777235,0 1.669899,-0.6618 1.777639,-1.15431 v 1.05427 h 0.38477 V 191.314 h -0.38477 v 2.01619 c 0,0.90037 -0.707979,1.73147 -1.769944,1.73147 -0.661804,0 -1.05427,-0.51559 -1.05427,-1.02349 V 191.314 h -0.38477 v 2.73187 c 0,0.69258 0.530983,1.40056 1.431345,1.40056 z"
         style="stroke-width:0.48096251px"
         id="path905"
         inkscape:connector-curvature="0" />
      <path
         d="m 104.22809,195.43104 c 0.24625,0 0.5002,-0.0693 0.71567,-0.20008 l -0.19238,-0.3309 c -0.16161,0.0923 -0.3463,0.14621 -0.53098,0.14621 -0.65411,0 -1.05427,-0.51559 -1.05427,-1.02349 v -2.32401 h 1.81611 V 191.314 h -1.81611 v -1.13892 h -0.38477 v 1.13892 h -0.38477 v 0.38477 h 0.38477 v 2.33171 c 0,0.69258 0.54637,1.40056 1.44673,1.40056 z"
         style="stroke-width:0.48096251px"
         id="path907"
         inkscape:connector-curvature="0" />
      <path
         d="m 110.24589,193.29941 c 0,-1.09274 -0.86188,-2.11623 -2.15471,-2.11623 -0.59255,0 -1.04658,0.25395 -1.339,0.69258 v -0.58485 h -0.38477 v 5.59456 h 0.38477 v -2.10854 c 0.27703,0.40786 0.72337,0.6772 1.38517,0.6772 1.09275,0 2.10854,-0.86189 2.10854,-2.15472 z m -3.49371,1.12353 v -2.20858 c 0.32321,-0.40785 0.82341,-0.64641 1.34669,-0.64641 1.05427,0 1.76225,0.8388 1.76225,1.73146 0,1.06197 -0.8311,1.76995 -1.73147,1.76995 -0.58485,0 -1.06966,-0.26165 -1.37747,-0.64642 z"
         style="stroke-width:0.48096251px"
         id="path909"
         inkscape:connector-curvature="0" />
      <path
         d="m 113.13935,195.44643 c 0.77723,0 1.6699,-0.6618 1.77764,-1.15431 v 1.05427 h 0.38477 V 191.314 h -0.38477 v 2.01619 c 0,0.90037 -0.70798,1.73147 -1.76995,1.73147 -0.6618,0 -1.05427,-0.51559 -1.05427,-1.02349 V 191.314 H 111.708 v 2.73187 c 0,0.69258 0.53099,1.40056 1.43135,1.40056 z"
         style="stroke-width:0.48096251px"
         id="path911"
         inkscape:connector-curvature="0" />
      <path
         d="m 118.59538,195.43104 c 0.24625,0 0.5002,-0.0693 0.71567,-0.20008 l -0.19238,-0.3309 c -0.16161,0.0923 -0.3463,0.14621 -0.53099,0.14621 -0.65411,0 -1.05427,-0.51559 -1.05427,-1.02349 v -2.32401 h 1.81612 V 191.314 h -1.81612 v -1.13892 h -0.38477 v 1.13892 h -0.38477 v 0.38477 h 0.38477 v 2.33171 c 0,0.69258 0.54638,1.40056 1.44674,1.40056 z"
         style="stroke-width:0.48096251px"
         id="path913"
         inkscape:connector-curvature="0" />
    </g>
    <g
       aria-label="011 101 000 110"
       style="font-style:normal;font-variant:normal;font-weight:normal;font-stretch:normal;font-size:4.23333311px;line-height:114.99999762%;font-family:'Generic Mono II';-inkscape-font-specification:'Generic Mono II';text-align:start;letter-spacing:0px;word-spacing:0px;writing-mode:lr-tb;text-anchor:start;fill:#000000;fill-opacity:1;stroke:none;stroke-width:0.26458332px;stroke-linecap:butt;stroke-linejoin:miter;stroke-opacity:1"
       id="text923"
       transform="matrix(0.71541055,0,0,0.71541055,-1.5793298,90.409346)">
      <path
         d="m 30.023269,209.68627 c 0,1.62278 0.194027,3.75709 1.181805,5.11528 0.811389,1.11125 1.887361,1.64042 3.245556,1.64042 3.721806,0 4.480278,-3.81 4.480278,-6.77334 0,-2.96333 -0.758472,-6.77333 -4.480278,-6.77333 -3.686528,0 -4.462639,3.84528 -4.462639,6.79097 z m 4.409722,-5.43278 c 1.763889,0 2.398889,1.60514 2.663472,3.08681 l -5.468055,3.29847 c -0.03528,-0.29986 -0.01764,-0.61736 -0.01764,-0.91722 0,-1.88736 0.211666,-5.45042 2.822222,-5.45042 z m 0,10.90084 c -1.728611,0 -2.38125,-1.56986 -2.645833,-3.03389 l 5.468055,-3.31611 c 0.03528,0.3175 0.01764,0.635 0.01764,0.9525 0,1.86972 -0.282222,5.43278 -2.8575,5.43278 z"
         style="font-size:17.63888931px;line-height:110.39999723%;letter-spacing:23.07401848px;stroke-width:0.26458332px"
         id="path916"
         inkscape:connector-curvature="0" />
      <path
         d="m 65.074081,216.17738 h 8.060973 v -1.32291 h -3.263195 v -11.80042 h -1.322916 c 0,1.55222 -0.776112,2.25778 -2.310695,2.25778 h -1.181806 v 1.23472 h 3.210278 v 8.30792 h -3.210278 z"
         style="font-size:17.63888931px;line-height:110.39999723%;letter-spacing:23.07401848px;stroke-width:0.26458332px"
         id="path918"
         inkscape:connector-curvature="0" />
      <path
         d="m 99.436977,216.17738 h 8.060973 v -1.32291 h -3.26319 v -11.80042 h -1.32292 c 0,1.55222 -0.77611,2.25778 -2.3107,2.25778 h -1.181802 v 1.23472 h 3.210282 v 8.30792 h -3.210282 z"
         style="fill:#0000ff"
         id="path920"
         inkscape:connector-curvature="0" />
      <path
         d="m 30.711185,235.65072 h 8.060973 v -1.32292 h -3.263195 v -11.80042 h -1.322916 c 0,1.55223 -0.776112,2.25778 -2.310695,2.25778 h -1.181806 v 1.23472 h 3.210278 v 8.30792 h -3.210278 z"
         style="font-size:17.63888931px;line-height:110.39999723%;letter-spacing:23.07401848px;stroke-width:0.26458332px"
         id="path922"
         inkscape:connector-curvature="0" />
      <path
         d="m 64.386165,229.15961 c 0,1.62277 0.194027,3.75708 1.181805,5.11527 0.811389,1.11125 1.887361,1.64042 3.245556,1.64042 3.721806,0 4.480278,-3.81 4.480278,-6.77333 0,-2.96334 -0.758472,-6.77334 -4.480278,-6.77334 -3.686528,0 -4.462639,3.84528 -4.462639,6.79098 z m 4.409722,-5.43278 c 1.763889,0 2.398889,1.60514 2.663472,3.0868 l -5.468055,3.29848 c -0.03528,-0.29987 -0.01764,-0.61737 -0.01764,-0.91723 0,-1.88736 0.211666,-5.45041 2.822222,-5.45041 z m 0,10.90083 c -1.728611,0 -2.38125,-1.56986 -2.645833,-3.03389 l 5.468055,-3.31611 c 0.03528,0.3175 0.01764,0.635 0.01764,0.9525 0,1.86972 -0.282222,5.43278 -2.8575,5.43278 z"
         style="font-size:17.63888931px;line-height:110.39999723%;letter-spacing:23.07401848px;stroke-width:0.26458332px"
         id="path924"
         inkscape:connector-curvature="0" />
      <path
         d="m 99.436977,235.65072 h 8.060973 v -1.32292 h -3.26319 v -11.80042 h -1.32292 c 0,1.55223 -0.77611,2.25778 -2.3107,2.25778 h -1.181802 v 1.23472 h 3.210282 v 8.30792 h -3.210282 z"
         style="fill:#0000ff"
         id="path926"
         inkscape:connector-curvature="0" />
      <path
         d="m 30.023269,248.63294 c 0,1.62278 0.194027,3.75708 1.181805,5.11528 0.811389,1.11125 1.887361,1.64041 3.245556,1.64041 3.721806,0 4.480278,-3.81 4.480278,-6.77333 0,-2.96333 -0.758472,-6.77333 -4.480278,-6.77333 -3.686528,0 -4.462639,3.84527 -4.462639,6.79097 z m 4.409722,-5.43278 c 1.763889,0 2.398889,1.60514 2.663472,3.08681 l -5.468055,3.29847 c -0.03528,-0.29986 -0.01764,-0.61736 -0.01764,-0.91722 0,-1.88736 0.211666,-5.45042 2.822222,-5.45042 z m 0,10.90083 c -1.728611,0 -2.38125,-1.56986 -2.645833,-3.03388 l 5.468055,-3.31612 c 0.03528,0.3175 0.01764,0.635 0.01764,0.9525 0,1.86973 -0.282222,5.43278 -2.8575,5.43278 z"
         style="font-size:17.63888931px;line-height:110.39999723%;letter-spacing:23.07401848px;stroke-width:0.26458332px"
         id="path928"
         inkscape:connector-curvature="0" />
      <path
         d="m 64.386165,248.63294 c 0,1.62278 0.194027,3.75708 1.181805,5.11528 0.811389,1.11125 1.887361,1.64041 3.245556,1.64041 3.721806,0 4.480278,-3.81 4.480278,-6.77333 0,-2.96333 -0.758472,-6.77333 -4.480278,-6.77333 -3.686528,0 -4.462639,3.84527 -4.462639,6.79097 z m 4.409722,-5.43278 c 1.763889,0 2.398889,1.60514 2.663472,3.08681 l -5.468055,3.29847 c -0.03528,-0.29986 -0.01764,-0.61736 -0.01764,-0.91722 0,-1.88736 0.211666,-5.45042 2.822222,-5.45042 z m 0,10.90083 c -1.728611,0 -2.38125,-1.56986 -2.645833,-3.03388 l 5.468055,-3.31612 c 0.03528,0.3175 0.01764,0.635 0.01764,0.9525 0,1.86973 -0.282222,5.43278 -2.8575,5.43278 z"
         style="font-size:17.63888931px;line-height:110.39999723%;letter-spacing:23.07401848px;stroke-width:0.26458332px"
         id="path930"
         inkscape:connector-curvature="0" />
      <path
         d="m 98.749061,248.63294 c 0,1.62278 0.194027,3.75708 1.181805,5.11528 0.811394,1.11125 1.887364,1.64041 3.245554,1.64041 3.72181,0 4.48028,-3.81 4.48028,-6.77333 0,-2.96333 -0.75847,-6.77333 -4.48028,-6.77333 -3.686526,0 -4.462637,3.84527 -4.462637,6.79097 z m 4.409719,-5.43278 c 1.76389,0 2.39889,1.60514 2.66348,3.08681 l -5.46806,3.29847 c -0.0353,-0.29986 -0.0176,-0.61736 -0.0176,-0.91722 0,-1.88736 0.21167,-5.45042 2.82222,-5.45042 z m 0,10.90083 c -1.72861,0 -2.38125,-1.56986 -2.64583,-3.03388 l 5.46806,-3.31612 c 0.0353,0.3175 0.0176,0.635 0.0176,0.9525 0,1.86973 -0.28222,5.43278 -2.8575,5.43278 z"
         style="fill:#800000"
         id="path932"
         inkscape:connector-curvature="0" />
      <path
         d="m 30.711185,274.59738 h 8.060973 v -1.32291 h -3.263195 v -11.80042 h -1.322916 c 0,1.55222 -0.776112,2.25778 -2.310695,2.25778 h -1.181806 v 1.23472 h 3.210278 v 8.30792 h -3.210278 z"
         style="font-size:17.63888931px;line-height:110.39999723%;letter-spacing:23.07401848px;stroke-width:0.26458332px"
         id="path934"
         inkscape:connector-curvature="0" />
      <path
         d="m 65.074081,274.59738 h 8.060973 v -1.32291 h -3.263195 v -11.80042 h -1.322916 c 0,1.55222 -0.776112,2.25778 -2.310695,2.25778 h -1.181806 v 1.23472 h 3.210278 v 8.30792 h -3.210278 z"
         style="font-size:17.63888931px;line-height:110.39999723%;letter-spacing:23.07401848px;stroke-width:0.26458332px"
         id="path936"
         inkscape:connector-curvature="0" />
      <path
         d="m 98.749061,268.10627 c 0,1.62278 0.194027,3.75709 1.181805,5.11528 0.811394,1.11125 1.887364,1.64042 3.245554,1.64042 3.72181,0 4.48028,-3.81 4.48028,-6.77334 0,-2.96333 -0.75847,-6.77333 -4.48028,-6.77333 -3.686526,0 -4.462637,3.84528 -4.462637,6.79097 z m 4.409719,-5.43278 c 1.76389,0 2.39889,1.60514 2.66348,3.08681 l -5.46806,3.29847 c -0.0353,-0.29986 -0.0176,-0.61736 -0.0176,-0.91722 0,-1.88736 0.21167,-5.45042 2.82222,-5.45042 z m 0,10.90084 c -1.72861,0 -2.38125,-1.56986 -2.64583,-3.03389 l 5.46806,-3.31611 c 0.0353,0.3175 0.0176,0.635 0.0176,0.9525 0,1.86972 -0.28222,5.43278 -2.8575,5.43278 z"
         style="fill:#800000"
         id="path938"
         inkscape:connector-curvature="0" />
    </g>
  </g>
</svg>
